<?xml version="1.0" encoding="UTF-8" standalone="no"?>
<svg
   xmlns:dc="http://purl.org/dc/elements/1.1/"
   xmlns:cc="http://creativecommons.org/ns#"
   xmlns:rdf="http://www.w3.org/1999/02/22-rdf-syntax-ns#"
   xmlns:svg="http://www.w3.org/2000/svg"
   xmlns="http://www.w3.org/2000/svg"
   width="400"
   height="135"
   viewBox="0 0 400 135"
   version="1.1"
   id="svg858">
  <defs
     id="defs852" />
  <metadata
     id="metadata855">
    <rdf:RDF>
      <cc:Work
         rdf:about="">
        <dc:format>image/svg+xml</dc:format>
        <dc:type
           rdf:resource="http://purl.org/dc/dcmitype/StillImage" />
        <dc:title></dc:title>
      </cc:Work>
    </rdf:RDF>
  </metadata>
  <path
     id="path1505"
     d="M 400,12.96875 0,130.14062 V 135 h 400 z"
     style="fill:#ffffff;fill-opacity:1;stroke:none;stroke-width:1px;stroke-linecap:butt;stroke-linejoin:miter;stroke-opacity:1" />
  <path
     id="path1488"
     d="M 365.37109,14.255859 C 327.43079,30.322889 284.89883,36.43551 243.51367,38.75 c -18.23812,1.01998 -36.57333,1.26503 -54.61133,4.21875 -39.01845,6.38928 -75.01881,25.153884 -109.312496,45.339844 -17.718877,10.4297 -35.486966,21.440366 -55.25,26.701176 C 16.363412,117.13305 8.1694724,118.28874 0,119.51562 v 13.01758 l 89.753906,-27.81445 97.474614,-41.855469 114.82226,1.064453 68.3086,-23.724609 21.26757,-12.041016 c 2.72115,-2.275556 5.516,-4.439834 8.37305,-6.498047 V 0 c -19.31693,7.9796086 -23.12133,9.503624 -34.62891,14.255859 z"
     style="fill:#1f2748;fill-opacity:1;stroke:none;stroke-width:1.08174551px;stroke-linecap:butt;stroke-linejoin:miter;stroke-opacity:1" />
  <path
     id="path1479"
     d="m 400,15.164062 c -5.69036,3.886921 -11.36728,7.799496 -17.09766,11.611329 C 366.15846,37.913401 348.51619,48.2098 329.1582,53.125 c -20.98095,5.3273 -42.9775,4.088564 -64.47656,1.833984 -21.49905,-2.25457 -43.0592,-5.496849 -64.625,-4.068359 -6.46439,0.4282 -12.87868,1.275996 -19.23437,2.472656 -1.1917,0.22437 -2.38086,0.460405 -3.56836,0.708985 -17.81256,3.7286 -35.1475,10.130618 -51.8125,17.705078 C 101.74011,82.549894 79.149441,95.715908 55.960938,107.61133 41.04656,115.26222 25.786393,122.42393 9.6835938,126.8418 6.4910331,127.71769 3.2562259,128.4573 0,129.08594 V 135 c 63.972678,-13.41096 124.30595,-43.084378 179.79883,-51.087891 35.74717,-4.71854 72.12459,-2.212772 107.85742,-7.044921 34.24033,-4.630331 68.15621,-16.35524 95.46875,-38.09961 5.3393,-4.2508 10.40524,-8.865233 15.87305,-12.939453 0.33021,-0.246048 0.66824,-0.48269 1.00195,-0.724609 z"
     style="fill:#324177;fill-opacity:1;stroke:none;stroke-width:1.08174551px;stroke-linecap:butt;stroke-linejoin:miter;stroke-opacity:1" />
</svg>
